# xmcd
#
# Track frame offsets: 
#        150
#        10702
#        21420
#        32710
#        41520
#        54435
#        65295
#        75000
#        88090
#        96262
#        109005
#        122100
#        133355
#        144560
#        153907
#        163357
#        171232
#        180927
#        190010
#        201357
#        214250
#        227377
#        239122
#
# Disc length: 3322 seconds
#
# Revision: 0
# Processed by: cddbd v1.5.2PL0 Copyright (c) Steve Scherf et al.
# Submitted via: ExactAudioCopy v0.95b3
#
DISCID=380cf817
DTITLE=Billy J. Kramer and The Dakotas  - Come Dance With Me (1993)  FLA
DTITLE=C
DYEAR=1900
DGENRE=
TTITLE0=Dance With Me
TTITLE1=Bad To Me
TTITLE2=Sugar Babe
TTITLE3=Da Doo Ron Ron
TTITLE4=The Twelfth Of Never
TTITLE5=Pride
TTITLE6=I Know
TTITLE7=It's Up To You
TTITLE8=Great Balls Of Fire
TTITLE9=Little Children
TTITLE10=Tell Me Girl
TTITLE11=Beautiful Dreamer
TTITLE12=Yes
TTITLE13=I Call Your Name
TTITLE14=Do You Want To Know A Secret
TTITLE15=I'll Be On My Way
TTITLE16=I'll Keep You Satisfied
TTITLE17=From A Window
TTITLE18=It's Gotta Last Forever
TTITLE19=Trains And Boats And Planes
TTITLE20=Neon City
TTITLE21=We're Doing Fine
TTITLE22=The Cruel Sea
EXTD=
EXTT0=
EXTT1=
EXTT2=
EXTT3=
EXTT4=
EXTT5=
EXTT6=
EXTT7=
EXTT8=
EXTT9=
EXTT10=
EXTT11=
EXTT12=
EXTT13=
EXTT14=
EXTT15=
EXTT16=
EXTT17=
EXTT18=
EXTT19=
EXTT20=
EXTT21=
EXTT22=
PLAYORDER=
